<mxfile host="app.diagrams.net" modified="2023-12-03T06:04:50.159Z" agent="Mozilla/5.0 (Windows NT 10.0; Win64; x64) AppleWebKit/537.36 (KHTML, like Gecko) Chrome/119.0.0.0 Safari/537.36" etag="M5axAM7tS2lFp9izSVqY" version="22.1.5" type="github">
  <diagram name="Page-1" id="iG9dt9-XikQV9yazCH53">
    <mxGraphModel dx="2261" dy="800" grid="1" gridSize="10" guides="1" tooltips="1" connect="1" arrows="1" fold="1" page="1" pageScale="1" pageWidth="827" pageHeight="1169" math="0" shadow="0">
      <root>
        <mxCell id="0" />
        <mxCell id="1" parent="0" />
        <mxCell id="mMHg8aRbZB5G5XVxGGDX-65" style="edgeStyle=orthogonalEdgeStyle;rounded=0;orthogonalLoop=1;jettySize=auto;html=1;exitX=1;exitY=0.5;exitDx=0;exitDy=0;exitPerimeter=0;entryX=0;entryY=0.5;entryDx=0;entryDy=0;" parent="1" source="mMHg8aRbZB5G5XVxGGDX-4" target="mMHg8aRbZB5G5XVxGGDX-8" edge="1">
          <mxGeometry relative="1" as="geometry" />
        </mxCell>
        <mxCell id="mMHg8aRbZB5G5XVxGGDX-4" value="开始" style="strokeWidth=2;html=1;shape=mxgraph.flowchart.terminator;whiteSpace=wrap;" parent="1" vertex="1">
          <mxGeometry x="-80" y="390.5" width="80" height="40" as="geometry" />
        </mxCell>
        <mxCell id="mMHg8aRbZB5G5XVxGGDX-8" value="访问大模型网站" style="rounded=1;whiteSpace=wrap;html=1;absoluteArcSize=1;arcSize=14;strokeWidth=2;" parent="1" vertex="1">
          <mxGeometry x="80" y="382.5" width="120" height="55" as="geometry" />
        </mxCell>
        <mxCell id="mMHg8aRbZB5G5XVxGGDX-50" style="edgeStyle=orthogonalEdgeStyle;rounded=0;orthogonalLoop=1;jettySize=auto;html=1;exitX=1;exitY=0.5;exitDx=0;exitDy=0;entryX=0;entryY=0.5;entryDx=0;entryDy=0;" parent="1" source="mMHg8aRbZB5G5XVxGGDX-9" target="mMHg8aRbZB5G5XVxGGDX-10" edge="1">
          <mxGeometry relative="1" as="geometry" />
        </mxCell>
        <mxCell id="mMHg8aRbZB5G5XVxGGDX-51" style="edgeStyle=orthogonalEdgeStyle;rounded=0;orthogonalLoop=1;jettySize=auto;html=1;entryX=0.5;entryY=0;entryDx=0;entryDy=0;dashed=1;fillColor=#f8cecc;strokeColor=#b85450;dashPattern=8 8;" parent="1" source="mMHg8aRbZB5G5XVxGGDX-9" target="mMHg8aRbZB5G5XVxGGDX-13" edge="1">
          <mxGeometry relative="1" as="geometry" />
        </mxCell>
        <mxCell id="mMHg8aRbZB5G5XVxGGDX-9" value="申请试用" style="rounded=1;whiteSpace=wrap;html=1;absoluteArcSize=1;arcSize=14;strokeWidth=2;" parent="1" vertex="1">
          <mxGeometry x="440" y="382.5" width="120" height="55" as="geometry" />
        </mxCell>
        <mxCell id="mMHg8aRbZB5G5XVxGGDX-10" value="等待账号开通" style="rounded=1;whiteSpace=wrap;html=1;absoluteArcSize=1;arcSize=14;strokeWidth=2;" parent="1" vertex="1">
          <mxGeometry x="640" y="382.5" width="120" height="55" as="geometry" />
        </mxCell>
        <mxCell id="mMHg8aRbZB5G5XVxGGDX-52" style="edgeStyle=orthogonalEdgeStyle;rounded=0;orthogonalLoop=1;jettySize=auto;html=1;exitX=0.5;exitY=1;exitDx=0;exitDy=0;entryX=0.5;entryY=0;entryDx=0;entryDy=0;" parent="1" source="mMHg8aRbZB5G5XVxGGDX-13" target="mMHg8aRbZB5G5XVxGGDX-17" edge="1">
          <mxGeometry relative="1" as="geometry" />
        </mxCell>
        <mxCell id="mMHg8aRbZB5G5XVxGGDX-13" value="钉钉群" style="rounded=1;whiteSpace=wrap;html=1;absoluteArcSize=1;arcSize=14;strokeWidth=2;" parent="1" vertex="1">
          <mxGeometry x="440" y="563" width="120" height="55" as="geometry" />
        </mxCell>
        <mxCell id="mMHg8aRbZB5G5XVxGGDX-17" value="申请审核" style="rounded=1;whiteSpace=wrap;html=1;absoluteArcSize=1;arcSize=14;strokeWidth=2;" parent="1" vertex="1">
          <mxGeometry x="440" y="658" width="120" height="55" as="geometry" />
        </mxCell>
        <mxCell id="mMHg8aRbZB5G5XVxGGDX-56" style="edgeStyle=orthogonalEdgeStyle;rounded=0;orthogonalLoop=1;jettySize=auto;html=1;exitX=0.5;exitY=0;exitDx=0;exitDy=0;entryX=0.5;entryY=1;entryDx=0;entryDy=0;" parent="1" source="mMHg8aRbZB5G5XVxGGDX-23" target="mMHg8aRbZB5G5XVxGGDX-25" edge="1">
          <mxGeometry relative="1" as="geometry" />
        </mxCell>
        <mxCell id="mMHg8aRbZB5G5XVxGGDX-23" value="开通账号" style="rounded=1;whiteSpace=wrap;html=1;absoluteArcSize=1;arcSize=14;strokeWidth=2;" parent="1" vertex="1">
          <mxGeometry x="840" y="658.5" width="120" height="55" as="geometry" />
        </mxCell>
        <mxCell id="mMHg8aRbZB5G5XVxGGDX-24" value="加入待开通库" style="rounded=1;whiteSpace=wrap;html=1;absoluteArcSize=1;arcSize=14;strokeWidth=2;" parent="1" vertex="1">
          <mxGeometry x="640" y="748" width="120" height="55" as="geometry" />
        </mxCell>
        <mxCell id="mMHg8aRbZB5G5XVxGGDX-57" style="edgeStyle=orthogonalEdgeStyle;rounded=0;orthogonalLoop=1;jettySize=auto;html=1;exitX=0.5;exitY=0;exitDx=0;exitDy=0;entryX=0.5;entryY=1;entryDx=0;entryDy=0;fillColor=#f8cecc;strokeColor=#b85450;dashed=1;dashPattern=8 8;" parent="1" source="mMHg8aRbZB5G5XVxGGDX-25" target="mMHg8aRbZB5G5XVxGGDX-27" edge="1">
          <mxGeometry relative="1" as="geometry" />
        </mxCell>
        <mxCell id="mMHg8aRbZB5G5XVxGGDX-25" value="邮件通知申请者" style="rounded=1;whiteSpace=wrap;html=1;absoluteArcSize=1;arcSize=14;strokeWidth=2;" parent="1" vertex="1">
          <mxGeometry x="840" y="563" width="120" height="55" as="geometry" />
        </mxCell>
        <mxCell id="mMHg8aRbZB5G5XVxGGDX-67" style="edgeStyle=orthogonalEdgeStyle;rounded=0;orthogonalLoop=1;jettySize=auto;html=1;exitX=0.5;exitY=0;exitDx=0;exitDy=0;entryX=0.5;entryY=0;entryDx=0;entryDy=0;" parent="1" source="mMHg8aRbZB5G5XVxGGDX-27" target="mMHg8aRbZB5G5XVxGGDX-8" edge="1">
          <mxGeometry relative="1" as="geometry">
            <Array as="points">
              <mxPoint x="900" y="350" />
              <mxPoint x="140" y="350" />
            </Array>
          </mxGeometry>
        </mxCell>
        <mxCell id="mMHg8aRbZB5G5XVxGGDX-27" value="收到邮件" style="rounded=1;whiteSpace=wrap;html=1;absoluteArcSize=1;arcSize=14;strokeWidth=2;" parent="1" vertex="1">
          <mxGeometry x="840" y="382.5" width="120" height="55" as="geometry" />
        </mxCell>
        <mxCell id="mMHg8aRbZB5G5XVxGGDX-47" style="edgeStyle=orthogonalEdgeStyle;rounded=0;orthogonalLoop=1;jettySize=auto;html=1;exitX=1;exitY=0.5;exitDx=0;exitDy=0;exitPerimeter=0;entryX=0;entryY=0.5;entryDx=0;entryDy=0;" parent="1" source="mMHg8aRbZB5G5XVxGGDX-28" target="mMHg8aRbZB5G5XVxGGDX-9" edge="1">
          <mxGeometry relative="1" as="geometry" />
        </mxCell>
        <mxCell id="mMHg8aRbZB5G5XVxGGDX-48" style="edgeStyle=orthogonalEdgeStyle;rounded=0;orthogonalLoop=1;jettySize=auto;html=1;exitX=0.5;exitY=1;exitDx=0;exitDy=0;exitPerimeter=0;entryX=0.5;entryY=0;entryDx=0;entryDy=0;" parent="1" source="mMHg8aRbZB5G5XVxGGDX-28" target="mMHg8aRbZB5G5XVxGGDX-29" edge="1">
          <mxGeometry relative="1" as="geometry" />
        </mxCell>
        <mxCell id="mMHg8aRbZB5G5XVxGGDX-28" value="是否有账号？" style="strokeWidth=2;html=1;shape=mxgraph.flowchart.decision;whiteSpace=wrap;" parent="1" vertex="1">
          <mxGeometry x="280" y="385.5" width="80" height="50" as="geometry" />
        </mxCell>
        <mxCell id="mMHg8aRbZB5G5XVxGGDX-49" style="edgeStyle=orthogonalEdgeStyle;rounded=0;orthogonalLoop=1;jettySize=auto;html=1;exitX=0;exitY=0.5;exitDx=0;exitDy=0;entryX=1;entryY=0.5;entryDx=0;entryDy=0;" parent="1" source="mMHg8aRbZB5G5XVxGGDX-29" target="mMHg8aRbZB5G5XVxGGDX-30" edge="1">
          <mxGeometry relative="1" as="geometry" />
        </mxCell>
        <mxCell id="mMHg8aRbZB5G5XVxGGDX-29" value="登录" style="rounded=1;whiteSpace=wrap;html=1;absoluteArcSize=1;arcSize=14;strokeWidth=2;" parent="1" vertex="1">
          <mxGeometry x="260" y="480" width="120" height="55" as="geometry" />
        </mxCell>
        <mxCell id="mMHg8aRbZB5G5XVxGGDX-60" style="edgeStyle=orthogonalEdgeStyle;rounded=0;orthogonalLoop=1;jettySize=auto;html=1;exitX=0.5;exitY=1;exitDx=0;exitDy=0;entryX=0.5;entryY=0;entryDx=0;entryDy=0;dashed=1;dashPattern=8 8;fillColor=#f8cecc;strokeColor=#b85450;" parent="1" source="mMHg8aRbZB5G5XVxGGDX-30" target="mMHg8aRbZB5G5XVxGGDX-31" edge="1">
          <mxGeometry relative="1" as="geometry" />
        </mxCell>
        <mxCell id="mMHg8aRbZB5G5XVxGGDX-30" value="使用大模型" style="rounded=1;whiteSpace=wrap;html=1;absoluteArcSize=1;arcSize=14;strokeWidth=2;" parent="1" vertex="1">
          <mxGeometry x="80" y="480" width="120" height="55" as="geometry" />
        </mxCell>
        <mxCell id="mMHg8aRbZB5G5XVxGGDX-31" value="会话、反馈等存储" style="rounded=1;whiteSpace=wrap;html=1;absoluteArcSize=1;arcSize=14;strokeWidth=2;" parent="1" vertex="1">
          <mxGeometry x="80" y="900" width="120" height="55" as="geometry" />
        </mxCell>
        <mxCell id="mMHg8aRbZB5G5XVxGGDX-62" style="edgeStyle=orthogonalEdgeStyle;rounded=0;orthogonalLoop=1;jettySize=auto;html=1;exitX=1;exitY=0.5;exitDx=0;exitDy=0;entryX=0;entryY=0.5;entryDx=0;entryDy=0;" parent="1" source="mMHg8aRbZB5G5XVxGGDX-34" target="mMHg8aRbZB5G5XVxGGDX-35" edge="1">
          <mxGeometry relative="1" as="geometry" />
        </mxCell>
        <mxCell id="mMHg8aRbZB5G5XVxGGDX-34" value="数据/业务分析" style="rounded=1;whiteSpace=wrap;html=1;absoluteArcSize=1;arcSize=14;strokeWidth=2;" parent="1" vertex="1">
          <mxGeometry x="478" y="900" width="120" height="55" as="geometry" />
        </mxCell>
        <mxCell id="mMHg8aRbZB5G5XVxGGDX-35" value="调优模型" style="rounded=1;whiteSpace=wrap;html=1;absoluteArcSize=1;arcSize=14;strokeWidth=2;" parent="1" vertex="1">
          <mxGeometry x="720" y="900" width="120" height="55" as="geometry" />
        </mxCell>
        <mxCell id="mMHg8aRbZB5G5XVxGGDX-36" value="" style="strokeWidth=2;html=1;shape=mxgraph.flowchart.direct_data;whiteSpace=wrap;" parent="1" vertex="1">
          <mxGeometry x="260" y="897.5" width="120" height="60" as="geometry" />
        </mxCell>
        <mxCell id="mMHg8aRbZB5G5XVxGGDX-38" value="" style="strokeWidth=2;html=1;shape=mxgraph.flowchart.direct_data;whiteSpace=wrap;" parent="1" vertex="1">
          <mxGeometry x="442" y="745.5" width="120" height="60" as="geometry" />
        </mxCell>
        <mxCell id="mMHg8aRbZB5G5XVxGGDX-54" style="edgeStyle=orthogonalEdgeStyle;rounded=0;orthogonalLoop=1;jettySize=auto;html=1;exitX=1;exitY=0.5;exitDx=0;exitDy=0;exitPerimeter=0;" parent="1" source="mMHg8aRbZB5G5XVxGGDX-41" target="mMHg8aRbZB5G5XVxGGDX-23" edge="1">
          <mxGeometry relative="1" as="geometry" />
        </mxCell>
        <mxCell id="mMHg8aRbZB5G5XVxGGDX-55" style="edgeStyle=orthogonalEdgeStyle;rounded=0;orthogonalLoop=1;jettySize=auto;html=1;exitX=0.5;exitY=1;exitDx=0;exitDy=0;exitPerimeter=0;entryX=0.5;entryY=0;entryDx=0;entryDy=0;" parent="1" source="mMHg8aRbZB5G5XVxGGDX-41" target="mMHg8aRbZB5G5XVxGGDX-24" edge="1">
          <mxGeometry relative="1" as="geometry" />
        </mxCell>
        <mxCell id="mMHg8aRbZB5G5XVxGGDX-41" value="立即开通？" style="strokeWidth=2;html=1;shape=mxgraph.flowchart.decision;whiteSpace=wrap;" parent="1" vertex="1">
          <mxGeometry x="660" y="661" width="80" height="50" as="geometry" />
        </mxCell>
        <mxCell id="mMHg8aRbZB5G5XVxGGDX-63" style="edgeStyle=orthogonalEdgeStyle;rounded=0;orthogonalLoop=1;jettySize=auto;html=1;entryX=0.5;entryY=1;entryDx=0;entryDy=0;" parent="1" source="mMHg8aRbZB5G5XVxGGDX-43" target="mMHg8aRbZB5G5XVxGGDX-23" edge="1">
          <mxGeometry relative="1" as="geometry">
            <Array as="points">
              <mxPoint x="320" y="820" />
              <mxPoint x="900" y="820" />
            </Array>
          </mxGeometry>
        </mxCell>
        <mxCell id="mMHg8aRbZB5G5XVxGGDX-68" style="edgeStyle=orthogonalEdgeStyle;rounded=0;orthogonalLoop=1;jettySize=auto;html=1;exitX=1;exitY=0.5;exitDx=0;exitDy=0;endArrow=none;endFill=0;fillColor=#d5e8d4;strokeColor=#82b366;dashed=1;" parent="1" source="mMHg8aRbZB5G5XVxGGDX-43" edge="1">
          <mxGeometry relative="1" as="geometry">
            <mxPoint x="440" y="776" as="targetPoint" />
          </mxGeometry>
        </mxCell>
        <mxCell id="mMHg8aRbZB5G5XVxGGDX-43" value="检查待开通名单" style="rounded=1;whiteSpace=wrap;html=1;absoluteArcSize=1;arcSize=14;strokeWidth=2;" parent="1" vertex="1">
          <mxGeometry x="260" y="749" width="120" height="55" as="geometry" />
        </mxCell>
        <mxCell id="mMHg8aRbZB5G5XVxGGDX-46" style="edgeStyle=orthogonalEdgeStyle;rounded=0;orthogonalLoop=1;jettySize=auto;html=1;exitX=1;exitY=0.5;exitDx=0;exitDy=0;entryX=0;entryY=0.5;entryDx=0;entryDy=0;entryPerimeter=0;" parent="1" source="mMHg8aRbZB5G5XVxGGDX-8" target="mMHg8aRbZB5G5XVxGGDX-28" edge="1">
          <mxGeometry relative="1" as="geometry" />
        </mxCell>
        <mxCell id="mMHg8aRbZB5G5XVxGGDX-53" style="edgeStyle=orthogonalEdgeStyle;rounded=0;orthogonalLoop=1;jettySize=auto;html=1;exitX=1;exitY=0.5;exitDx=0;exitDy=0;entryX=0;entryY=0.5;entryDx=0;entryDy=0;entryPerimeter=0;" parent="1" source="mMHg8aRbZB5G5XVxGGDX-17" target="mMHg8aRbZB5G5XVxGGDX-41" edge="1">
          <mxGeometry relative="1" as="geometry" />
        </mxCell>
        <mxCell id="mMHg8aRbZB5G5XVxGGDX-64" style="edgeStyle=orthogonalEdgeStyle;rounded=0;orthogonalLoop=1;jettySize=auto;html=1;entryX=0.5;entryY=0;entryDx=0;entryDy=0;" parent="1" source="mMHg8aRbZB5G5XVxGGDX-59" target="mMHg8aRbZB5G5XVxGGDX-43" edge="1">
          <mxGeometry relative="1" as="geometry" />
        </mxCell>
        <mxCell id="mMHg8aRbZB5G5XVxGGDX-59" value="Actor" style="shape=umlActor;verticalLabelPosition=bottom;verticalAlign=top;html=1;outlineConnect=0;fillColor=#666666;" parent="1" vertex="1">
          <mxGeometry x="305" y="598.5" width="30" height="60" as="geometry" />
        </mxCell>
        <mxCell id="mMHg8aRbZB5G5XVxGGDX-69" style="edgeStyle=orthogonalEdgeStyle;rounded=0;orthogonalLoop=1;jettySize=auto;html=1;exitX=0;exitY=0.5;exitDx=0;exitDy=0;entryX=1;entryY=0.5;entryDx=0;entryDy=0;entryPerimeter=0;dashed=1;fillColor=#d5e8d4;strokeColor=#82b366;startArrow=none;startFill=0;endArrow=none;endFill=0;" parent="1" source="mMHg8aRbZB5G5XVxGGDX-24" target="mMHg8aRbZB5G5XVxGGDX-38" edge="1">
          <mxGeometry relative="1" as="geometry" />
        </mxCell>
        <mxCell id="SPfGU6q8q4rX_HUr5H_A-2" value="Actor" style="shape=umlActor;verticalLabelPosition=bottom;verticalAlign=top;html=1;outlineConnect=0;fillColor=#666666;" vertex="1" parent="1">
          <mxGeometry x="305" y="840" width="30" height="60" as="geometry" />
        </mxCell>
      </root>
    </mxGraphModel>
  </diagram>
</mxfile>
